<svg viewBox="0 0 1920 1080" xmlns="http://www.w3.org/2000/svg"><path d="m1385.9 834.79q-25.79 0-51 .51c-114.65 2.29-229.39-1.83-343.1-13.48-93.25-9.56-199-15-311.15-15-375.73.04-672.82 60.82-680.33 135.38-16.87 167.44 304.6 135.34 680.35 135.34 94.31 0 184.13-3.82 265.79-10.72a2837.55 2837.55 0 0 1 345.22-8.22c30.59 1.15 62.08 1.48 94.23 1.75 392 3.28 534.41-20.69 534.41-112.78 0-62.29-239.27-112.78-534.42-112.78z" fill="#f2f4f6"/><ellipse cx="953.96" cy="866.93" opacity=".3" rx="549.11" ry="7.23"/><rect fill="#4d4d4d" height="690.46" rx="10.49" width="1110.29" x="404.85"/><path d="m421.48 16.9h1076.75v656.25h-1076.75z" fill="#fff"/><circle cx="500.66" cy="61.86" fill="#f87462" r="15.14"/><circle cx="547.09" cy="61.86" fill="#f87462" r="15.14"/><circle cx="593.52" cy="61.86" fill="#f87462" r="15.14"/><path d="m1023.79 418.44-89.87 51.88a11.08 11.08 0 0 1 -16.81-9.5v-103.76a11.08 11.08 0 0 1 16.81-9.5l89.87 51.88c8.04 3.65 8.04 14.61 0 19z" fill="#f87462"/><path d="m959.86 290.52a118.06 118.06 0 1 1 -118.06 118.05 118.19 118.19 0 0 1 118.06-118.05m0-48.54a166.59 166.59 0 1 0 166.59 166.59 166.59 166.59 0 0 0 -166.59-166.57z" fill="#f87462"/><path d="m421.48 106.81h1076.75v18.03h-1076.75z" fill="#f87462"/><ellipse cx="695.34" cy="1019.48" opacity=".3" rx="199.73" ry="9.04"/><g fill="#f05748"><path d="m766.81 902.89c1.74 12.8 3.26 25.08 4.72 35.94 1.36 10.05 2.66 18.9 4.07 25.84.23 1.16.46 2.27.7 3.31-13.76-1.26-32.78-1.09-41 1.12-8.88 2.39-36.32 2.41-56.32 0-18.53-2.23-53.19-1.34-61-.58.28-1.2.55-2.5.82-3.85 1.4-6.95 2.71-15.79 4.07-25.84 1.45-10.86 3-23.13 4.72-35.94 14.34-105.08-25.47-128.89-25.47-128.89 31.52-10.47 56.93-11 56.93-11h9.42s5.45 7.2 28.7 7.2 28.7-7.2 28.7-7.2h9.43s25.4.56 56.92 11c0 0-39.81 23.81-25.41 128.89z"/><path d="m808.58 789.35c.56 1 1.09 2.09 1.58 3.18-.5-1.1-1.03-2.16-1.58-3.18z"/><path d="m812.06 797.07c-.6-1.57-1.22-3.08-1.9-4.55.67 1.48 1.31 2.98 1.9 4.55z"/><path d="m814.8 805.76c-.47-1.73-1-3.42-1.49-5.05.55 1.64 1.04 3.29 1.49 5.05z"/><path d="m814.8 805.77c.86 3.25 1.61 6.64 2.23 10.1-.63-3.47-1.36-6.87-2.23-10.1z"/><path d="m819.9 886.29c-.6 14.45-3.86 35.77-6.78 52.53-.28 1.63-.56 3.23-.84 4.76-.24 1.38-.48 2.72-.73 4 .23-1.26.46-2.54.68-3.88.28-1.6.56-3.23.85-4.9 3-17.78 6.24-39 6.8-52.53.47-11.71 1.26-32.31-.54-52.78 1.82 20.51 1.03 41.09.56 52.8z"/><path d="m625.37 902.89c-1.74 12.8-3.26 25.08-4.72 35.94-1.36 10.05-2.66 18.9-4.07 25.84-.26 1.36-.54 2.65-.82 3.85-.62.07-1.08.13-1.34.19-3.6.8-16 .4-20.4-1.6a6.85 6.85 0 0 1 -2.66-2.45c-2.54-3.66-4-9.8-6.13-12s-4.49-8.19-5.76-11.6l-.4-2.29c-2.33-13.61-4.74-29.19-6-41.84-.08-.88-.17-1.73-.24-2.58l-.11-1.25c0-.49-.08-1-.12-1.45-.06-.89-.12-1.76-.18-2.6s-.11-1.91-.14-2.81c-1.1-27.05-3.86-101.7 27.72-112.24 0 0 39.76 23.81 25.37 128.89z"/><path d="m819.89 886.29c-.56 13.56-3.76 34.75-6.8 52.53-.29 1.67-.58 3.3-.85 4.9-2.47 6.14-7.61 11.25-10.47 15.39a24.9 24.9 0 0 1 -4.91 5.56c-3.49 2.81-8.63 4.66-17.33 3.65-1-.12-2.12-.23-3.24-.34-.24-1-.47-2.15-.7-3.31-1.4-6.95-2.71-15.79-4.07-25.84-1.45-10.86-3-23.13-4.72-35.94-14.39-105.08 25.42-128.89 25.42-128.89a25 25 0 0 1 10 6.42 36.45 36.45 0 0 1 4.64 6q.9 1.42 1.73 3c.55 1 1.08 2.09 1.58 3.18.67 1.46 1.3 3 1.9 4.55l.43 1.2c.28.79.55 1.6.83 2.42.53 1.63 1 3.32 1.49 5.05.86 3.25 1.6 6.62 2.23 10.1 4.58 25.3 3.45 55.24 2.84 70.37z"/></g><path d="m813.12 938.82c-.28 1.63-.56 3.23-.84 4.76a.42.42 0 0 1 0 .13c.28-1.6.56-3.23.85-4.9z" fill="#125394"/><path d="m735.3 763s-4.91 21.57-41.41 21.57-34.84-21.57-34.84-21.57h9.42s5.44 7.2 28.7 7.2 28.7-7.2 28.7-7.2z" fill="#b44136"/><path d="m564.88 1014.31s127.21 38.69 260.93 0v-16.8h-267.44z" fill="#125394"/><path d="m579 938.82s-77.14-32.35-106.18-21.57-32.35 53.09-9.12 65.53 101.2 31.52 101.2 31.52h48.1l-7.47-41.47z" fill="#125394"/><path d="m811.71 938.82s77.14-32.35 106.18-21.57 32.35 53.09 9.12 65.53-101.2 31.52-101.2 31.52h-48.11l7.47-41.47z" fill="#125394"/><path d="m579 938.82s12.27 50.21 23.14 62.85 140.33 24 190.1-2 3.78-201 3.78-201h-179.93l-24.76 136.33z" fill="#f05748"/><path d="m629.32 673.18s-14.5-49.29 9.9-71.55 64.58-22.8 93.77-4.23 10.21 93.93 10.21 93.93z" fill="#a05423"/><path d="m719.44 725.11c-11.32 13.49-28.92 19.75-46.47 18.31-17.17-1.41-38.83-9-49-36-18.18-48.47 26.95-73.49 43.5-78.33s48.11-6.54 48.11-6.54-20.29 38.76 13.75 81.08c.03-.04-.33 10.15-9.89 21.48z" fill="#a05423"/><path d="m760.6 683.77c7.44 16 5.67 34.56-3.06 49.85-8.54 14.95-24.54 31.38-53.37 29.14-51.61-4-55.2-55.5-52.58-72.55s14.41-46.36 14.41-46.36 26.54 34.78 79.29 21.82c0 .01 9.07 4.68 15.31 18.1z" fill="#a05423"/><path d="m626.5 692.13s-18.13 0-23.62 16.49-1.27 29.17 7.61 32.13c0 0-29.6 8.88-26.64 46.09s33.83 33.83 59.2 27.48 99.37-28.75 99.37-28.75l42.58-13.28s5.64-42.1-19.73-47.18-44.82 7.61-43.13-17.76-95.64-15.22-95.64-15.22z" fill="#a05423"/><circle cx="650.97" cy="798.63" fill="#a05423" r="34.88"/><circle cx="708.12" cy="797.85" fill="#a05423" r="34.88"/><circle cx="750.89" cy="780.55" fill="#a05423" r="35.14"/><ellipse cx="1224.02" cy="1016.92" opacity=".3" rx="199.73" ry="9.04"/><path d="m1107.66 938.82s-77.14-32.35-106.18-21.57-32.35 53.09-9.12 65.53 101.2 31.52 101.2 31.52h48.11l-7.47-41.47z" fill="#de8d3c"/><path d="m1340.38 938.82s77.14-32.35 106.18-21.57 32.35 53.09 9.12 65.53-101.2 31.52-101.2 31.52h-48.11l7.47-41.47z" fill="#de8d3c"/><path d="m1141.67 1014.3h164.7l7.47-41.47 6.36-8.15-192.37-.01 6.37 8.16z" fill="#125394"/><path d="m1093.56 1014.31s109.62 20.4 260.93 0v-16.8h-267.49z" fill="#de8d3c"/><path d="m1313.38 845.16c.65 11.7 2.35 37.65 8.95 48s16.8 36.62 19.22 44.57 19.48 70.31 24.88 81.76-18.9 20.05-22.5 23.35 2.64 13.06 22.3 12.6 23.3-18.9 32.3-17.36 26.1 3.86 25.2-3.94-27.9-.3-28.81-18-20.17-87.72-20.17-87.72-5.08-27.55-8.51-50.86-18.07-42.08-18.07-42.08z" fill="#b37552"/><path d="m1363.74 923s-8 5.6-15.4 3.8" style="fill:none;stroke:#000;stroke-linecap:round;stroke-miterlimit:10;stroke-width:3.6;opacity:.1"/><path d="m1341.71 938.27-85.29 26.4-99.74-5.82-49.02-20.03-1.75 46.72 102.51 9.6 97.95-5.65 30.44-14.75z" fill="#de8d3c"/><path d="m1327.7 1008.41h-23.89l-36.9-159.05 26.46-10.82v.06c.43 1.08 6.56 16.39 6.22 22.76-.36 6.61 3.92 30.9 6.77 36s10.35 46.37 10 56c-.13 4.43 1.61 11.23 3.62 17.83 2.4 7.82 5.17 15.33 5.66 18.24.97 5.41 2.06 18.98 2.06 18.98z" fill="#a7bcdb"/><path d="m1184.28 849.68-40 158.2-23.89-.42s.08-.67.23-1.79c.48-3.83 1.63-12.79 2.4-16.93.44-2.4 2.53-8 4.67-14.23 2.63-7.65 5.34-16.38 5.26-21.69 0-.49 0-1.08 0-1.73.65-12.07 8.21-49.34 11-54.12 2.93-5 7.64-29.25 7.4-35.86-.23-5.84 5.1-19 6.36-22.08l.28-.64.35.16z" fill="#a7bcdb"/><path d="m1140.88 845.16c-.65 11.7-2.35 37.65-8.95 48s-16.8 36.62-19.22 44.57-19.48 70.31-24.88 81.76 18.9 20.05 22.5 23.35-2.64 13.06-22.3 12.6-23.3-18.9-32.3-17.36-26.1 3.86-25.2-3.94 27.9-.3 28.81-18 20.17-87.72 20.17-87.72 5.08-27.55 8.51-50.86 18.07-42.08 18.07-42.08z" fill="#b37552"/><path d="m1090.52 923s8 5.6 15.4 3.8" style="fill:none;stroke:#000;stroke-linecap:round;stroke-miterlimit:10;stroke-width:3.6;opacity:.1"/><path d="m1352.62 833.4-46.24 15.36-13-10.21s0 0 0 0c.42 2.2 12.68 63.72 23 114.82-.13 4.43 1.61 11.23 3.62 17.83 3 15 5.74 28.08 7.65 37.16 1.26 6-3.12 17.86-8.81 20.15-18.89 7.58-9.39 7.58-94.73 7.58-69.67 0-74.94-.68-95-7.62-8.75-3-10.48-14.26-9.1-20.32.18-.82.38-1.66.58-2.53 1.86-8.17 4.31-19 7.07-31.16 2.63-7.65 5.34-16.38 5.26-21.69 0-.49 0-1.08 0-1.73 2.1-9.32 4.27-19 6.43-28.5 1.81-8 3.6-16 5.34-23.62 2.6-11.55 5-22.35 7.1-31.54 3.56-15.77 6-26.77 6.46-28.59a1.83 1.83 0 0 1 .06-.26l-.62.48-12.36 9.73-46.25-15.36s-5.78-1.24 11.71-36.24 76.93-34.2 76.93-34.2h76.28s59.45-.8 76.93 34.2 11.69 36.26 11.69 36.26z" fill="#a7bcdb"/><path d="m1282.73 714c-6.89 3.43-28.7 41.32-28.7 48.22v11.49h-56.67v-11.41c0-6.92-21.84-44.82-28.73-48.28s-12.62-14.92-11.89-24.11 11.89-8.79 11.89-8.79-2.3-45.58 3.06-54.4 32.16-14.92 54-14.92 48.61 6.13 54 14.95 3.06 54.37 3.06 54.37 11.12-.4 11.89 8.79-5.01 20.68-11.91 24.09z" fill="#b37552"/><path d="m1282.73 681.12s-11.49 52.08-34.09 52h-45.95c-22.58 0-34.06-52.08-34.06-52.08s-2.3-45.58 3.06-54.4 32.16-14.92 54-14.92 48.61 6.13 54 14.95 3.04 54.45 3.04 54.45z"/><path d="m1264 763s-4.91 21.57-41.41 21.57-34.86-21.57-34.86-21.57h9.42s5.44 7.2 28.7 7.2 28.7-7.2 28.7-7.2z" fill="#5e728e"/></svg>