<svg width="479" height="144" viewBox="0 0 479 144" fill="none" xmlns="http://www.w3.org/2000/svg">
<circle cx="50.7197" cy="92.7197" r="46.7197" stroke="#37FA7A" stroke-width="8"/>
<path d="M6.62244 110.368C5.06034 111.93 5.06034 114.463 6.62244 116.025C8.18454 117.587 10.7172 117.587 12.2793 116.025L6.62244 110.368ZM32.763 89.8844L35.5914 87.056L32.763 84.2275L29.9346 87.056L32.763 89.8844ZM41.5838 98.7052L38.7554 101.534L41.5838 104.362L44.4122 101.534L41.5838 98.7052ZM68.0462 72.2428L70.8747 69.4143L68.0462 66.5859L65.2178 69.4143L68.0462 72.2428ZM106.172 116.025C107.734 117.587 110.266 117.587 111.828 116.025C113.391 114.463 113.391 111.93 111.828 110.368L106.172 116.025ZM12.2793 116.025L35.5914 92.7128L29.9346 87.056L6.62244 110.368L12.2793 116.025ZM29.9346 92.7128L38.7554 101.534L44.4122 95.8768L35.5914 87.056L29.9346 92.7128ZM44.4122 101.534L70.8747 75.0712L65.2178 69.4143L38.7554 95.8768L44.4122 101.534ZM65.2178 75.0712L106.172 116.025L111.828 110.368L70.8747 69.4143L65.2178 75.0712Z" fill="#37FA7A"/>
<circle cx="50.7197" cy="92.7197" r="46.7197" stroke="#37FA7A" stroke-width="8"/>
<path d="M6.62244 110.368C5.06034 111.93 5.06034 114.463 6.62244 116.025C8.18454 117.587 10.7172 117.587 12.2793 116.025L6.62244 110.368ZM32.763 89.8844L35.5914 87.056L32.763 84.2275L29.9346 87.056L32.763 89.8844ZM41.5838 98.7052L38.7554 101.534L41.5838 104.362L44.4122 101.534L41.5838 98.7052ZM68.0462 72.2428L70.8747 69.4143L68.0462 66.5859L65.2178 69.4143L68.0462 72.2428ZM106.172 116.025C107.734 117.587 110.266 117.587 111.828 116.025C113.391 114.463 113.391 111.93 111.828 110.368L106.172 116.025ZM12.2793 116.025L35.5914 92.7128L29.9346 87.056L6.62244 110.368L12.2793 116.025ZM29.9346 92.7128L38.7554 101.534L44.4122 95.8768L35.5914 87.056L29.9346 92.7128ZM44.4122 101.534L70.8747 75.0712L65.2178 69.4143L38.7554 95.8768L44.4122 101.534ZM65.2178 75.0712L106.172 116.025L111.828 110.368L70.8747 69.4143L65.2178 75.0712Z" fill="#37FA7A"/>
<path d="M136.926 112H130.176L142.466 77.0909H150.273L162.58 112H155.83L146.506 84.25H146.233L136.926 112ZM137.148 98.3125H155.557V103.392H137.148V98.3125ZM175.824 112.46C173.767 112.46 171.926 111.932 170.301 110.875C168.676 109.818 167.392 108.284 166.449 106.273C165.506 104.261 165.034 101.818 165.034 98.9432C165.034 96.0341 165.511 93.5795 166.466 91.5795C167.432 89.5682 168.733 88.0511 170.369 87.0284C172.006 85.9943 173.83 85.4773 175.841 85.4773C177.375 85.4773 178.636 85.7386 179.625 86.2614C180.614 86.7727 181.398 87.392 181.977 88.1193C182.557 88.8352 183.006 89.5114 183.324 90.1477H183.58V77.0909H189.767V112H183.699V107.875H183.324C183.006 108.511 182.545 109.187 181.943 109.903C181.341 110.608 180.545 111.21 179.557 111.71C178.568 112.21 177.324 112.46 175.824 112.46ZM177.545 107.398C178.852 107.398 179.966 107.045 180.886 106.341C181.807 105.625 182.506 104.631 182.983 103.358C183.46 102.085 183.699 100.602 183.699 98.9091C183.699 97.2159 183.46 95.7443 182.983 94.4943C182.517 93.2443 181.824 92.2727 180.903 91.5795C179.994 90.8864 178.875 90.5398 177.545 90.5398C176.17 90.5398 175.023 90.8977 174.102 91.6136C173.182 92.3295 172.489 93.3182 172.023 94.5795C171.557 95.8409 171.324 97.2841 171.324 98.9091C171.324 100.545 171.557 102.006 172.023 103.29C172.5 104.562 173.199 105.568 174.119 106.307C175.051 107.034 176.193 107.398 177.545 107.398ZM219.729 85.8182L210.405 112H203.587L194.263 85.8182H200.842L206.859 105.267H207.132L213.166 85.8182H219.729ZM234.699 112.511C232.074 112.511 229.807 111.966 227.898 110.875C226 109.773 224.54 108.216 223.517 106.205C222.494 104.182 221.983 101.801 221.983 99.0625C221.983 96.3693 222.494 94.0057 223.517 91.9716C224.551 89.9261 225.994 88.3352 227.847 87.1989C229.699 86.0511 231.875 85.4773 234.375 85.4773C235.989 85.4773 237.511 85.7386 238.943 86.2614C240.386 86.7727 241.659 87.5682 242.761 88.6477C243.875 89.7273 244.75 91.1023 245.386 92.7727C246.023 94.4318 246.341 96.4091 246.341 98.7045V100.597H224.881V96.4375H240.426C240.415 95.2557 240.159 94.2045 239.659 93.2841C239.159 92.3523 238.46 91.6193 237.562 91.0852C236.676 90.5511 235.642 90.2841 234.46 90.2841C233.199 90.2841 232.091 90.5909 231.136 91.2045C230.182 91.8068 229.438 92.6023 228.903 93.5909C228.381 94.5682 228.114 95.642 228.102 96.8125V100.443C228.102 101.966 228.381 103.273 228.938 104.364C229.494 105.443 230.273 106.273 231.273 106.852C232.273 107.42 233.443 107.705 234.784 107.705C235.682 107.705 236.494 107.58 237.222 107.33C237.949 107.068 238.58 106.688 239.114 106.188C239.648 105.688 240.051 105.068 240.324 104.33L246.085 104.977C245.722 106.5 245.028 107.83 244.006 108.966C242.994 110.091 241.699 110.966 240.119 111.591C238.54 112.205 236.733 112.511 234.699 112.511ZM257.732 96.6591V112H251.561V85.8182H257.459V90.267H257.766C258.368 88.8011 259.328 87.6364 260.646 86.7727C261.976 85.9091 263.618 85.4773 265.572 85.4773C267.379 85.4773 268.953 85.8636 270.294 86.6364C271.646 87.4091 272.692 88.5284 273.43 89.9943C274.18 91.4602 274.55 93.2386 274.538 95.3295V112H268.368V96.2841C268.368 94.5341 267.913 93.1648 267.004 92.1761C266.107 91.1875 264.862 90.6932 263.271 90.6932C262.192 90.6932 261.232 90.9318 260.391 91.4091C259.561 91.875 258.908 92.5511 258.43 93.4375C257.964 94.3239 257.732 95.3977 257.732 96.6591ZM293.885 85.8182V90.5909H278.834V85.8182H293.885ZM282.55 79.5455H288.72V104.125C288.72 104.955 288.845 105.591 289.095 106.034C289.357 106.466 289.697 106.761 290.118 106.92C290.538 107.08 291.004 107.159 291.516 107.159C291.902 107.159 292.254 107.131 292.572 107.074C292.902 107.017 293.152 106.966 293.322 106.92L294.362 111.744C294.033 111.858 293.561 111.983 292.947 112.119C292.345 112.256 291.607 112.335 290.732 112.358C289.186 112.403 287.794 112.17 286.555 111.659C285.317 111.136 284.334 110.33 283.607 109.239C282.891 108.148 282.538 106.784 282.55 105.148V79.5455ZM315.733 100.989V85.8182H321.903V112H315.92V107.347H315.648C315.057 108.812 314.085 110.011 312.733 110.943C311.392 111.875 309.739 112.341 307.773 112.341C306.057 112.341 304.54 111.96 303.222 111.199C301.915 110.426 300.892 109.307 300.153 107.841C299.415 106.364 299.045 104.58 299.045 102.489V85.8182H305.216V101.534C305.216 103.193 305.67 104.511 306.58 105.489C307.489 106.466 308.682 106.955 310.159 106.955C311.068 106.955 311.949 106.733 312.801 106.29C313.653 105.847 314.352 105.188 314.898 104.312C315.455 103.426 315.733 102.318 315.733 100.989ZM328.249 112V85.8182H334.232V90.1818H334.504C334.982 88.6705 335.8 87.5057 336.959 86.6875C338.129 85.858 339.464 85.4432 340.964 85.4432C341.305 85.4432 341.686 85.4602 342.107 85.4943C342.538 85.517 342.896 85.5568 343.18 85.6136V91.2898C342.919 91.1989 342.504 91.1193 341.936 91.0511C341.379 90.9716 340.839 90.9318 340.317 90.9318C339.192 90.9318 338.18 91.1761 337.283 91.6648C336.396 92.142 335.697 92.8068 335.186 93.6591C334.675 94.5114 334.419 95.4943 334.419 96.608V112H328.249ZM357.793 112.511C355.168 112.511 352.901 111.966 350.991 110.875C349.094 109.773 347.634 108.216 346.611 106.205C345.588 104.182 345.077 101.801 345.077 99.0625C345.077 96.3693 345.588 94.0057 346.611 91.9716C347.645 89.9261 349.088 88.3352 350.94 87.1989C352.793 86.0511 354.969 85.4773 357.469 85.4773C359.082 85.4773 360.605 85.7386 362.037 86.2614C363.48 86.7727 364.753 87.5682 365.855 88.6477C366.969 89.7273 367.844 91.1023 368.48 92.7727C369.116 94.4318 369.435 96.4091 369.435 98.7045V100.597H347.974V96.4375H363.52C363.509 95.2557 363.253 94.2045 362.753 93.2841C362.253 92.3523 361.554 91.6193 360.656 91.0852C359.77 90.5511 358.736 90.2841 357.554 90.2841C356.293 90.2841 355.185 90.5909 354.23 91.2045C353.276 91.8068 352.531 92.6023 351.997 93.5909C351.474 94.5682 351.207 95.642 351.196 96.8125V100.443C351.196 101.966 351.474 103.273 352.031 104.364C352.588 105.443 353.366 106.273 354.366 106.852C355.366 107.42 356.537 107.705 357.878 107.705C358.776 107.705 359.588 107.58 360.315 107.33C361.043 107.068 361.673 106.688 362.207 106.188C362.741 105.688 363.145 105.068 363.418 104.33L369.179 104.977C368.815 106.5 368.122 107.83 367.099 108.966C366.088 110.091 364.793 110.966 363.213 111.591C361.634 112.205 359.827 112.511 357.793 112.511Z" fill="white"/>
</svg>
