<?xml version="1.0" ?><svg fill="none" height="17" viewBox="0 0 17 17" width="17" xmlns="http://www.w3.org/2000/svg"><path d="M13.6683 4.78509C13.6683 4.90669 13.6443 5.02711 13.5978 5.13945C13.5513 5.2518 13.483 5.35388 13.3971 5.43987C13.3111 5.52586 13.209 5.59406 13.0966 5.6406C12.9843 5.68714 12.8639 5.71109 12.7423 5.71109C12.6207 5.71109 12.5003 5.68714 12.3879 5.6406C12.2756 5.59406 12.1735 5.52586 12.0875 5.43987C12.0015 5.35388 11.9333 5.2518 11.8868 5.13945C11.8402 5.02711 11.8163 4.90669 11.8163 4.78509C11.8163 4.5395 11.9138 4.30397 12.0875 4.13031C12.2612 3.95665 12.4967 3.85909 12.7423 3.85909C12.9879 3.85909 13.2234 3.95665 13.3971 4.13031C13.5707 4.30397 13.6683 4.5395 13.6683 4.78509ZM16.6083 8.96509V8.97709L16.5553 12.3331C16.5418 13.5434 16.055 14.7004 15.1992 15.5563C14.3435 16.4123 13.1866 16.8993 11.9763 16.9131L8.60828 16.9651H8.59628L5.24028 16.9121C4.02995 16.8986 2.87299 16.4118 2.01702 15.5561C1.16104 14.7003 0.674051 13.5434 0.660276 12.3331L0.608276 8.96509V8.95309L0.661276 5.59709C0.674786 4.38676 1.16152 3.2298 2.01731 2.37383C2.8731 1.51785 4.02995 1.03086 5.24028 1.01709L8.60828 0.965088H8.62028L11.9763 1.01809C13.1866 1.0316 14.3436 1.51833 15.1995 2.37412C16.0555 3.22991 16.5425 4.38676 16.5563 5.59709L16.6083 8.96509ZM15.1183 8.96509L15.0663 5.62009C15.0569 4.79737 14.7259 4.01099 14.1442 3.4292C13.5624 2.84742 12.776 2.51644 11.9533 2.50709L8.60828 2.45509L5.26328 2.50709C4.44056 2.51644 3.65418 2.84742 3.07239 3.4292C2.49061 4.01099 2.15963 4.79737 2.15028 5.62009L2.09828 8.96509L2.15028 12.3101C2.15963 13.1328 2.49061 13.9192 3.07239 14.501C3.65418 15.0828 4.44056 15.4137 5.26328 15.4231L8.60828 15.4751L11.9533 15.4231C12.776 15.4137 13.5624 15.0828 14.1442 14.501C14.7259 13.9192 15.0569 13.1328 15.0663 12.3101L15.1183 8.96509ZM12.7163 8.96509C12.7163 10.0546 12.2835 11.0995 11.5131 11.8699C10.7427 12.6403 9.69779 13.0731 8.60828 13.0731C7.51877 13.0731 6.47388 12.6403 5.70348 11.8699C4.93308 11.0995 4.50028 10.0546 4.50028 8.96509C4.50028 7.87558 4.93308 6.83069 5.70348 6.06029C6.47388 5.28989 7.51877 4.85709 8.60828 4.85709C9.69779 4.85709 10.7427 5.28989 11.5131 6.06029C12.2835 6.83069 12.7163 7.87558 12.7163 8.96509ZM11.2263 8.96509C11.2263 8.27075 10.9505 7.60485 10.4595 7.11388C9.96851 6.62291 9.30261 6.34709 8.60828 6.34709C7.91394 6.34709 7.24804 6.62291 6.75707 7.11388C6.2661 7.60485 5.99028 8.27075 5.99028 8.96509C5.99028 9.65942 6.2661 10.3253 6.75707 10.8163C7.24804 11.3073 7.91394 11.5831 8.60828 11.5831C9.30261 11.5831 9.96851 11.3073 10.4595 10.8163C10.9505 10.3253 11.2263 9.65942 11.2263 8.96509Z" fill="black"/></svg>