<svg width="133" height="120" viewBox="0 0 133 120" fill="none" xmlns="http://www.w3.org/2000/svg">
<circle cx="59.8377" cy="59.7197" r="55.7197" stroke="#37FA7A" stroke-width="8"/>
<path d="M8.41742 81.0015C6.85533 82.5636 6.85533 85.0963 8.41742 86.6584C9.97952 88.2205 12.5122 88.2205 14.0743 86.6584L8.41742 81.0015ZM38.6946 56.3812L41.5231 53.5528L38.6946 50.7243L35.8662 53.5528L38.6946 56.3812ZM49.0807 66.7672L46.2522 69.5956L49.0807 72.4241L51.9091 69.5956L49.0807 66.7672ZM80.2387 35.6091L83.0672 32.7807L80.2387 29.9523L77.4103 32.7807L80.2387 35.6091ZM125.631 86.6584C127.193 88.2205 129.726 88.2205 131.288 86.6584C132.85 85.0963 132.85 82.5636 131.288 81.0015L125.631 86.6584ZM14.0743 86.6584L41.5231 59.2096L35.8662 53.5528L8.41742 81.0015L14.0743 86.6584ZM35.8662 59.2096L46.2522 69.5956L51.9091 63.9388L41.5231 53.5528L35.8662 59.2096ZM51.9091 69.5956L83.0672 38.4376L77.4103 32.7807L46.2522 63.9388L51.9091 69.5956ZM77.4103 38.4376L125.631 86.6584L131.288 81.0015L83.0672 32.7807L77.4103 38.4376Z" fill="#37FA7A"/>
</svg>
