<?xml version="1.0" standalone="no"?>
<!DOCTYPE svg PUBLIC "-//W3C//DTD SVG 20010904//EN"
 "http://www.w3.org/TR/2001/REC-SVG-20010904/DTD/svg10.dtd">
<svg version="1.0" xmlns="http://www.w3.org/2000/svg"
 width="512.000000pt" height="512.000000pt" viewBox="0 0 512.000000 512.000000"
 preserveAspectRatio="xMidYMid meet">

<g transform="translate(0.000000,512.000000) scale(0.100000,-0.100000)"
fill="#000000" stroke="none">
<path d="M1890 5110 c-149 -21 -336 -89 -466 -169 -271 -168 -461 -425 -552
-751 l-27 -95 -5 -973 -5 -974 -135 -52 c-186 -72 -252 -109 -335 -191 -85
-83 -153 -190 -192 -300 l-28 -80 -3 -690 -2 -690 23 -40 c12 -21 42 -53 65
-70 l44 -30 1524 -3 1525 -2 24 24 c32 32 32 70 0 101 l-24 25 -529 0 -528 0
-50 25 c-62 31 -104 91 -104 150 0 23 5 46 12 53 17 17 2679 17 2696 0 7 -7
12 -30 12 -53 0 -59 -42 -119 -104 -150 l-50 -25 -528 0 -529 0 -24 -25 c-32
-31 -32 -69 0 -101 l25 -25 552 3 553 3 57 27 c121 56 190 159 196 293 3 75 1
83 -26 126 -37 57 -97 89 -169 89 l-51 0 24 58 24 57 0 766 c0 854 3 821 -69
915 -23 31 -59 60 -101 83 l-65 36 -637 3 -638 3 0 104 c0 100 -1 104 -26 124
-35 27 -57 26 -91 -3 -27 -23 -28 -29 -31 -125 l-4 -101 -294 0 -294 0 0 88 0
88 66 64 c116 114 186 236 220 382 l18 77 40 6 c65 11 141 50 195 100 l50 47
3 -182 c3 -177 4 -182 27 -201 30 -25 76 -24 101 1 20 20 20 33 20 554 0 430
-3 551 -15 622 -41 241 -148 453 -317 631 -178 186 -390 305 -640 359 -88 19
-317 26 -408 14z m341 -156 c443 -76 790 -415 873 -854 10 -53 16 -139 16
-241 l0 -160 -31 35 c-17 20 -61 50 -97 68 l-67 33 -251 6 c-284 7 -327 15
-410 78 -52 39 -108 121 -125 183 -11 44 -41 68 -84 68 -46 0 -70 -23 -93 -88
-29 -78 -73 -136 -130 -173 -82 -52 -131 -60 -400 -68 -238 -6 -249 -8 -303
-33 -31 -14 -75 -42 -98 -63 l-41 -37 0 150 c0 226 32 364 126 543 214 405
667 630 1115 553z m5 -1196 c77 -41 155 -58 311 -65 l143 -6 0 -241 c0 -279
-9 -340 -69 -462 -125 -253 -404 -393 -679 -341 -202 39 -369 163 -458 342
-54 111 -64 176 -64 456 l0 246 143 6 c221 10 317 45 427 157 l64 65 66 -65
c36 -36 88 -78 116 -92z m-966 -258 l0 -190 -27 6 c-64 15 -132 73 -154 131
-30 79 9 173 90 215 95 50 91 56 91 -162z m1676 155 c48 -28 84 -91 84 -146
-1 -48 -31 -110 -71 -143 -32 -27 -47 -35 -96 -50 l-23 -7 0 192 0 192 32 -7
c17 -3 51 -17 74 -31z m-1823 -451 c26 -14 72 -30 101 -36 l54 -10 6 -47 c18
-133 102 -288 218 -404 l79 -79 -3 -96 -3 -96 -290 -113 c-159 -62 -291 -113
-292 -113 -2 0 -3 248 -3 551 l0 551 42 -42 c23 -23 64 -53 91 -66z m844 -716
c113 -15 235 -2 342 35 l71 25 0 -52 c0 -52 0 -52 -42 -71 -55 -24 -118 -88
-148 -150 -19 -41 -25 -70 -28 -156 l-4 -107 -30 -6 c-118 -24 -290 24 -394
110 -37 30 -106 121 -119 156 -3 8 14 24 41 40 56 35 74 75 74 167 l0 69 72
-24 c39 -14 113 -30 165 -36z m2556 -192 c43 -17 95 -78 102 -118 3 -18 5
-369 3 -779 l-3 -746 -28 -36 c-59 -78 31 -72 -1127 -72 -1158 0 -1068 -6
-1127 72 l-28 36 -3 746 c-2 410 0 761 3 779 7 39 58 100 100 118 45 20 2061
20 2108 0z m-3023 -124 c69 -130 203 -239 353 -288 67 -22 102 -27 194 -28
l113 -1 0 -71 c0 -82 -2 -84 -85 -84 -268 0 -516 122 -660 325 -51 71 -89 144
-80 153 6 7 114 50 127 51 4 1 21 -25 38 -57z m-279 -114 c152 -303 449 -487
817 -505 l122 -6 0 -446 c0 -446 0 -446 24 -503 l24 -58 -51 0 c-72 0 -132
-32 -169 -89 -27 -43 -29 -51 -26 -126 3 -57 10 -93 26 -124 12 -25 22 -46 22
-48 0 -2 -252 -3 -560 -3 l-560 0 0 659 c0 651 0 659 -21 685 -26 33 -79 36
-109 6 -19 -19 -20 -33 -20 -280 l0 -260 -226 0 -225 0 3 273 c3 253 5 276 25
331 45 119 135 233 238 303 36 25 592 250 622 252 7 1 27 -27 44 -61z m-481
-1578 l0 -330 -206 0 c-122 0 -213 4 -225 10 -18 10 -19 25 -19 330 l0 320
225 0 225 0 0 -330z"/>
<path d="M2635 2083 c-39 -10 -84 -53 -95 -91 -6 -23 -10 -233 -10 -570 0
-576 0 -571 55 -622 l27 -25 858 0 858 0 27 25 c55 51 55 46 55 622 0 337 -4
547 -10 570 -7 24 -24 48 -47 65 l-36 28 -831 1 c-457 1 -840 0 -851 -3z
m1623 -655 l2 -508 -790 0 -790 0 0 503 c0 277 3 507 7 510 3 4 358 6 787 5
l781 -3 3 -507z"/>
<path d="M3561 1773 c-22 -19 -301 -606 -301 -634 0 -9 9 -28 21 -43 26 -33
81 -36 106 -6 26 30 292 602 293 628 0 30 -42 72 -73 72 -14 0 -34 -8 -46 -17z"/>
<path d="M2948 1583 c-65 -65 -121 -127 -124 -139 -3 -12 1 -35 9 -50 20 -38
216 -230 244 -238 26 -8 78 16 87 39 16 44 5 66 -76 150 l-81 85 81 84 c91 93
100 119 57 161 -45 46 -67 36 -197 -92z"/>
<path d="M3795 1675 c-43 -42 -34 -68 57 -161 l81 -84 -81 -85 c-81 -84 -92
-106 -76 -150 9 -23 61 -47 87 -39 28 8 224 200 244 238 8 15 12 38 9 50 -3
12 -59 74 -124 139 -130 128 -152 138 -197 92z"/>
</g>
</svg>
