<?xml version="1.0" encoding="iso-8859-1"?>
<!-- Generator: Adobe Illustrator 19.0.0, SVG Export Plug-In . SVG Version: 6.00 Build 0)  -->
<svg version="1.1" id="Capa_1" xmlns="http://www.w3.org/2000/svg" xmlns:xlink="http://www.w3.org/1999/xlink" x="0px" y="0px"
	 viewBox="0 0 512 512" style="enable-background:new 0 0 512 512;" xml:space="preserve">
<path style="fill:#F91E1E;" d="M86.832,201.536C86.832,34.088,181.496,0,255.656,0c76.464,0,169.52,26.72,169.52,194.16v48.824
	c0,86.136-12.896,149.712-72.32,149.712c-31.552,0-49.752-14.056-58.272-44.456c-10.592,28.56-29.944,44.224-52.512,44.224
	c-24.184,0-67.944-4.84-67.944-110.096V226.4C174.12,131.512,215.12,120,238.384,120c21.416,0,36.392,12.44,46.064,28.56
	l4.376-25.104h45.136v192.088c0,27.176,10.368,34.776,20.96,34.776c13.816,0,24.64-11.976,24.64-91.664V194.16
	c0-146.712-75.544-154.088-123.456-154.088c-48.36,0-123.912,14.744-123.912,161.456v108.48
	c0,150.168,80.384,159.608,137.504,159.608c17.968,0,45.84-3.224,62.184-9.904v36.848c-11.968,8.536-47.2,15.44-75.304,15.44
	c-58.96,0-169.752-22.8-169.752-210.968v-99.496H86.832z M278.688,328.208V184.952c-4.84-11.744-12.208-20.496-23.264-20.496
	c-13.36,0-26.024,8.52-26.024,55.736v73.24c0,45.368,10.592,53.896,25.8,53.896C266.712,347.32,273.848,338.568,278.688,328.208z"/>
<g>
</g>
<g>
</g>
<g>
</g>
<g>
</g>
<g>
</g>
<g>
</g>
<g>
</g>
<g>
</g>
<g>
</g>
<g>
</g>
<g>
</g>
<g>
</g>
<g>
</g>
<g>
</g>
<g>
</g>
</svg>
