<?xml version="1.0" encoding="iso-8859-1"?>
<!-- Uploaded to: SVG Repo, www.svgrepo.com, Generator: SVG Repo Mixer Tools -->
<svg height="800px" width="800px" version="1.1" id="Layer_1" xmlns="http://www.w3.org/2000/svg" xmlns:xlink="http://www.w3.org/1999/xlink" 
	 viewBox="0 0 291.32 291.32" xml:space="preserve">
<g>
	<g>
		<path style="fill:#26A6D1;" d="M145.66,0C65.547,0,0,65.547,0,145.66s65.547,145.66,145.66,145.66s145.66-65.547,145.66-145.66
			S225.772,0,145.66,0z M145.66,264.008c-65.547,0-118.348-52.802-118.348-118.348S80.113,27.311,145.66,27.311
			S264.008,80.113,264.008,145.66S211.206,264.008,145.66,264.008z"/>
		<path style="fill:#E2574C;" d="M221.22,70.099l-56.443,94.679l-38.236-38.236C126.542,126.542,221.22,70.099,221.22,70.099z"/>
		<path style="fill:#E4E7E7;" d="M70.099,221.22l94.679-56.443l-38.236-38.236C126.542,126.542,70.099,221.22,70.099,221.22z"/>
	</g>
</g>
</svg>